<svg height="80mm" viewBox="0 0 400 80" width="400mm" xmlns="http://www.w3.org/2000/svg"><g clip-rule="evenodd" fill="#4d39e9" fill-rule="evenodd" stroke-linejoin="round" stroke-miterlimit="2"><path d="m450.496 169.435c-4.094 2.373-8.849 3.732-13.918 3.732-15.352 0-27.816-12.464-27.816-27.817 0-15.352 12.464-27.816 27.816-27.816 15.353 0 27.817 12.464 27.817 27.816 0 .078-.001.156-.001.233.011.166.017.334.017.503v19.802c0 4.051-3.29 7.341-7.341 7.341h-.146c-2.766 0-5.176-1.533-6.428-3.794zm-13.918-37.089c7.178 0 13.005 5.827 13.005 13.004 0 7.178-5.827 13.005-13.005 13.005-7.177 0-13.004-5.827-13.004-13.005 0-7.177 5.827-13.004 13.004-13.004z" transform="matrix(.44474208883 0 0 .44474208883 -129.68199104427 -23.82141189765)"/><g transform="matrix(.44474208883 0 0 .44474208883 -129.92738479395 -23.57601814797)"><path d="m478.536 144.506-14.232-14.232c-2.882-2.882-2.882-7.562 0-10.444l.104-.104c2.882-2.882 7.562-2.882 10.444 0l11.143 11.142 11.099-11.099c2.882-2.882 7.561-2.882 10.444 0l.104.105c2.882 2.882 2.882 7.561 0 10.444l-14.189 14.188v21.182c0 4.075-3.309 7.384-7.385 7.385h-.147c-4.076 0-7.385-3.31-7.385-7.385z"/><path d="m520.444 100.307c4.076 0 7.385 3.309 7.385 7.385v32.909c.235-.373.507-.729.816-1.063.191-.248.4-.486.627-.713l19.603-19.603c2.882-2.882 7.562-2.882 10.444 0l.105.105c2.882 2.882 2.882 7.562 0 10.444l-14.736 14.735 16.023 16.022c2.882 2.882 2.882 7.562 0 10.444l-.105.104c-2.882 2.882-7.562 2.882-10.444 0l-21.31-21.31c-.395-.395-.736-.824-1.023-1.278v17.566c0 4.076-3.309 7.385-7.385 7.385h-.148c-4.076 0-7.385-3.309-7.385-7.385v-58.362c0-4.076 3.309-7.385 7.385-7.385z"/><path d="m605.849 145.908v-.011-21.198c0-4.084 3.316-7.4 7.399-7.4 4.084 0 7.4 3.316 7.4 7.4v19.916c.004.19.006.38.006.57 0 .191-.002.382-.006.572v.14c0 .208-.009.414-.026.618-.695 14.736-12.878 26.486-27.785 26.486-14.87 0-27.031-11.694-27.779-26.379-.024-.239-.035-.481-.035-.725v-.431c-.001-.094-.002-.187-.002-.281 0-.093.001-.187.002-.28v-20.206c0-4.084 3.315-7.4 7.399-7.4s7.399 3.316 7.399 7.4v19.806h.002l-.002.042v1.277c.334 6.896 6.038 12.393 13.016 12.393 6.95 0 12.636-5.452 13.012-12.309z"/></g><path d="m351.159 145.578c-.001-.076-.001-.152-.001-.228 0-15.352 12.464-27.816 27.816-27.816s27.816 12.464 27.816 27.816c0 15.353-12.464 27.817-27.816 27.817-4.638 0-9.013-1.138-12.86-3.15v18.758c0 4.076-3.309 7.385-7.385 7.385h-.148c-4.076 0-7.385-3.309-7.385-7.385v-18.386l-4.26 2.459c-2.543 1.468-5.799.596-7.266-1.947l-.053-.091c-1.468-2.543-.596-5.799 1.946-7.267l9.633-5.561v-.018l8.331-4.81c2.542-1.468 3.415-4.724 1.947-7.266l-.053-.092c-1.468-2.543-4.724-3.415-7.266-1.947zm17.657 8.218c2.424 2.912 6.076 4.767 10.158 4.767 7.293 0 13.213-5.92 13.213-13.213 0-7.292-5.92-13.212-13.213-13.212-7.292 0-13.212 5.92-13.212 13.212 0 2.813.88 5.422 2.381 7.565.25.265.476.559.673.881z" transform="matrix(.44427061473 0 0 .44427061473 -129.8742729523 -23.76205160404)"/></g><g fill="#ef3b2d" transform="matrix(.26458333 0 0 .26458333 170.01365 -5.181504)"><path d="m389.647 121.376h-16.466v100.23h47.394v-14.748h-30.928z"/><path d="m478.706 163.902c-2.101-3.341-5.083-5.965-8.949-7.875-3.865-1.909-7.756-2.864-11.669-2.864-5.062 0-9.69.931-13.89 2.792-4.201 1.861-7.804 4.417-10.811 7.661-3.007 3.246-5.347 6.993-7.016 11.239-1.672 4.249-2.506 8.713-2.506 13.389 0 4.774.834 9.26 2.506 13.459 1.669 4.202 4.009 7.925 7.016 11.169 3.007 3.246 6.609 5.799 10.811 7.66 4.199 1.861 8.828 2.792 13.89 2.792 3.913 0 7.804-.955 11.669-2.863 3.866-1.908 6.849-4.533 8.949-7.875v9.021h15.607v-66.725h-15.607zm-1.431 32.503c-.955 2.578-2.291 4.821-4.009 6.73-1.719 1.91-3.795 3.437-6.229 4.582-2.435 1.146-5.133 1.718-8.091 1.718-2.96 0-5.633-.572-8.019-1.718-2.387-1.146-4.438-2.672-6.156-4.582-1.719-1.909-3.032-4.152-3.938-6.73-.909-2.577-1.36-5.298-1.36-8.161 0-2.864.451-5.585 1.36-8.162.905-2.577 2.219-4.819 3.938-6.729 1.718-1.908 3.77-3.437 6.156-4.582 2.386-1.146 5.059-1.718 8.019-1.718 2.958 0 5.656.572 8.091 1.718 2.434 1.146 4.51 2.674 6.229 4.582 1.718 1.91 3.054 4.152 4.009 6.729.953 2.577 1.432 5.298 1.432 8.162-.001 2.863-.479 5.584-1.432 8.161z"/><path d="m605.569 163.902c-2.101-3.341-5.083-5.965-8.949-7.875-3.865-1.909-7.756-2.864-11.669-2.864-5.062 0-9.69.931-13.89 2.792-4.201 1.861-7.804 4.417-10.811 7.661-3.007 3.246-5.347 6.993-7.016 11.239-1.672 4.249-2.506 8.713-2.506 13.389 0 4.774.834 9.26 2.506 13.459 1.669 4.202 4.009 7.925 7.016 11.169 3.007 3.246 6.609 5.799 10.811 7.66 4.199 1.861 8.828 2.792 13.89 2.792 3.913 0 7.804-.955 11.669-2.863 3.866-1.908 6.849-4.533 8.949-7.875v9.021h15.607v-66.725h-15.607zm-1.432 32.503c-.955 2.578-2.291 4.821-4.009 6.73-1.719 1.91-3.795 3.437-6.229 4.582-2.435 1.146-5.133 1.718-8.091 1.718-2.96 0-5.633-.572-8.019-1.718-2.387-1.146-4.438-2.672-6.156-4.582-1.719-1.909-3.032-4.152-3.938-6.73-.909-2.577-1.36-5.298-1.36-8.161 0-2.864.451-5.585 1.36-8.162.905-2.577 2.219-4.819 3.938-6.729 1.718-1.908 3.77-3.437 6.156-4.582 2.386-1.146 5.059-1.718 8.019-1.718 2.958 0 5.656.572 8.091 1.718 2.434 1.146 4.51 2.674 6.229 4.582 1.718 1.91 3.054 4.152 4.009 6.729.953 2.577 1.432 5.298 1.432 8.162 0 2.863-.479 5.584-1.432 8.161z"/><path d="m776.78101 121.376h15.606v100.23h-15.606z"/><path d="m506.628 221.606h15.607v-51.368h26.776v-15.356h-42.383z"/><path d="m654.325 221.606h19.614l25.617-66.724h-15.808l-19.616 51.096-19.616-51.096h-15.808z"/><path d="m733.595 153.166c-19.112 0-34.239 15.706-34.239 35.079 0 21.416 14.641 35.079 36.239 35.079 12.088 0 19.806-4.622 29.234-14.688l-10.544-8.158c-.006.008-7.958 10.449-19.832 10.449-13.802 0-19.612-11.127-19.612-16.884h51.777c2.72-22.043-11.772-40.877-33.023-40.877zm-18.713 29.28c.12-1.284 1.917-16.884 18.589-16.884 16.671 0 18.697 15.598 18.813 16.884z"/><path d="m325.683 120.592c-.024-.088-.073-.165-.104-.25-.058-.157-.108-.316-.191-.46-.056-.097-.137-.176-.203-.265-.087-.117-.161-.242-.265-.345-.085-.086-.194-.148-.29-.223-.109-.085-.206-.182-.327-.252 0 0-.001 0-.002-.001-.001 0-.001-.001-.002-.002l-35.648-20.524c-.917-.528-2.047-.528-2.964 0l-35.647 20.522c-.001 0-.001.001-.002.002-.001 0-.002 0-.002.001-.121.07-.219.167-.327.252-.096.075-.205.138-.29.223-.103.103-.178.228-.265.345-.066.089-.147.169-.203.265-.083.144-.133.304-.191.46-.031.085-.08.162-.104.25-.067.249-.103.51-.103.776v38.979l-29.706 17.103v-76.255c0-.265-.036-.526-.103-.776-.024-.088-.073-.165-.104-.25-.058-.157-.108-.316-.191-.46-.056-.097-.137-.176-.203-.265-.087-.117-.161-.242-.265-.345-.085-.086-.194-.148-.29-.223-.109-.085-.206-.182-.327-.252 0 0-.001 0-.002-.001-.001 0-.001-.001-.002-.002l-35.647-20.523c-.917-.528-2.047-.528-2.964 0l-35.647 20.523c-.001 0-.001.001-.002.002-.001 0-.002 0-.002.001-.121.07-.219.167-.327.252-.096.075-.205.138-.29.223-.103.103-.178.228-.265.345-.066.089-.147.169-.203.265-.083.144-.133.304-.191.46-.031.085-.08.162-.104.25-.067.249-.103.51-.103.776v122.09c0 1.063.568 2.044 1.489 2.575l71.293 41.045c.156.089.324.143.49.202.078.028.15.074.23.095.249.066.506.1.762.1s.512-.033.762-.1c.069-.018.132-.059.2-.083.176-.061.354-.119.519-.214l71.293-41.045c.921-.53 1.489-1.512 1.489-2.575v-38.979l34.158-19.666c.921-.53 1.489-1.512 1.489-2.575v-40.697c-.003-.264-.038-.525-.106-.774zm-109.813 99.275-29.648-16.779 31.136-17.926s0 0 .001-.001l34.164-19.669 29.674 17.084-21.772 12.428zm68.329-76.259v33.841l-12.475-7.182-17.231-9.92v-33.841l12.475 7.182zm2.97-39.335 29.693 17.095-29.693 17.095-29.693-17.095zm-91.494 86.516-12.475 7.182v-74.538l17.231-9.92 12.475-7.182v74.537zm-15.446-106.691 29.693 17.095-29.693 17.095-29.693-17.095zm-32.676 22.234 12.475 7.182 17.231 9.92v79.676c0 .002.001.003.001.005s-.001.004-.001.006c0 .114.032.221.045.333.017.146.021.294.059.434.001.002.001.005.002.007.032.117.094.222.14.334.051.124.088.255.156.371.001.003.002.006.004.009.061.105.149.191.222.288.081.105.149.22.244.314.003.003.005.007.008.01.084.083.19.142.284.215.106.083.202.178.32.247.004.002.009.003.013.005s.007.006.011.008l34.139 19.321v34.175l-65.352-37.625v-115.235zm136.646 115.235-65.352 37.625v-34.182l48.399-27.628 16.953-9.677zm35.646-61.22-29.706 17.102v-33.841l17.231-9.92 12.475-7.182z"/></g><text fill="#0b7fdb" font-size="85.3333" letter-spacing="-20" transform="matrix(.26458333 0 0 .26458333 3.69476 -30.819582)" word-spacing="0"><tspan x="621.62109" y="293.31505"><tspan font-family="FiraCode Nerd Font" font-weight="600">x</tspan></tspan></text></svg>